<?xml version="1.0" encoding="UTF-8"?>
<svg width="3px" height="12px" viewBox="0 0 3 12" version="1.1" xmlns="http://www.w3.org/2000/svg" xmlns:xlink="http://www.w3.org/1999/xlink">
    <!-- Generator: sketchtool 53.2 (72643) - https://sketchapp.com -->
    <title>A8318B9F-9BC7-402D-B2BF-DCBE384A8F1F@svg</title>
    <desc>Created with sketchtool.</desc>
    <g id="03.-project-detail" stroke="none" stroke-width="1" fill="none" fill-rule="evenodd">
        <g id="01.03.01-lopende-projecten---project-details---werkuren" transform="translate(-1339.000000, -587.000000)">
            <g id="row" transform="translate(73.000000, 555.000000)">
                <g id="icon/actions" transform="translate(1256.000000, 26.000000)">
                    <g id="icons/actions" transform="translate(12.000000, 12.000000) rotate(90.000000) translate(-12.000000, -12.000000) ">
                        <rect id="bounding" x="0" y="0" width="24" height="24"></rect>
                        <path d="M7.5,11 C6.671875,11 6,11.671875 6,12.5 C6,13.328125 6.671875,14 7.5,14 C8.328125,14 9,13.328125 9,12.5 C9,11.671875 8.328125,11 7.5,11 Z M12,11 C11.171875,11 10.5,11.671875 10.5,12.5 C10.5,13.328125 11.171875,14 12,14 C12.828125,14 13.5,13.328125 13.5,12.5 C13.5,11.671875 12.828125,11 12,11 Z M16.5,11 C15.671875,11 15,11.671875 15,12.5 C15,13.328125 15.671875,14 16.5,14 C17.328125,14 18,13.328125 18,12.5 C18,11.671875 17.328125,11 16.5,11 Z" id="Shape" fill="#999999" fill-rule="nonzero"></path>
                    </g>
                </g>
            </g>
        </g>
    </g>
</svg>