<?xml version="1.0" encoding="UTF-8"?>
<svg width="19px" height="19px" viewBox="0 0 19 19" version="1.1" xmlns="http://www.w3.org/2000/svg" xmlns:xlink="http://www.w3.org/1999/xlink">
    <!-- Generator: sketchtool 53.2 (72643) - https://sketchapp.com -->
    <title>C26240EE-D74D-4345-AAC9-F08915B76A57@svg</title>
    <desc>Created with sketchtool.</desc>
    <defs>
        <path d="M9.35499954,0 C4.1852813,0 0,4.1852813 0,9.35499954 C0,14.5247178 4.1852813,18.7099991 9.35499954,18.7099991 C14.5247178,18.7099991 18.7099991,14.5247178 18.7099991,9.35499954 C18.7099991,4.1852813 14.5247178,0 9.35499954,0 Z M8.60386819,2.0713016 C8.6323205,2.06845659 8.66646284,2.07414661 8.69491442,2.0713016 L8.69491442,2.4354865 C8.69491442,2.7996714 8.99081465,3.09557162 9.35499954,3.09557162 C9.71918444,3.09557162 10.0150847,2.7996714 10.0150847,2.4354865 L10.0150847,2.0713016 C13.5260551,2.38427336 16.3257265,5.18394476 16.6386975,8.69491442 L16.2745126,8.69491442 C16.251751,8.69491442 16.2289895,8.69491442 16.2062279,8.69491442 C15.842043,8.71483096 15.5603686,9.02495698 15.5802851,9.38914188 C15.6002017,9.75332677 15.9103277,10.0350012 16.2745126,10.0150847 L16.6386975,10.0150847 C16.3257265,13.5260551 13.5260551,16.3257265 10.0150847,16.6386975 L10.0150847,16.2745126 C10.0179297,16.0867301 9.94110998,15.9046377 9.8016949,15.7794491 C9.66228055,15.6514148 9.47449808,15.5916659 9.28671487,15.6144275 C8.94813655,15.6457248 8.68922439,15.9330892 8.69491442,16.2745126 L8.69491442,16.6386975 C5.18394476,16.3257265 2.38427336,13.5260551 2.0713016,10.0150847 L2.4354865,10.0150847 C2.7996714,10.0150847 3.09557162,9.71918444 3.09557162,9.35499954 C3.09557162,8.99081465 2.7996714,8.69491442 2.4354865,8.69491442 L2.0713016,8.69491442 C2.38427336,5.21239634 5.13273089,2.42410572 8.60386819,2.0713016 Z M9.35499954,3.84670297 C8.9965054,3.84670297 8.84286453,4.16536476 8.83148375,4.34745721 L8.62662975,8.19416018 C8.23683828,8.43884727 7.96654462,8.85993606 7.96654462,9.35499954 C7.96654462,10.1175117 8.59248741,10.7434545 9.35499954,10.7434545 C9.39483263,10.7434545 9.42897496,10.7235379 9.46880732,10.7206929 L12.5643789,13.4976027 C12.706639,13.6227913 13.076514,13.7365991 13.4065565,13.4065565 C13.7394441,13.076514 13.6427078,12.6838775 13.5203643,12.5416174 L10.7434545,9.3777611 C10.7434545,9.36922533 10.7434545,9.36353531 10.7434545,9.35499954 C10.7434545,8.84286453 10.453245,8.41039497 10.0378462,8.17139863 L9.87851533,4.34745721 C9.86997957,4.16536476 9.71064867,3.84670297 9.35499954,3.84670297 Z" id="path-1"></path>
    </defs>
    <g id="03.-project-detail" stroke="none" stroke-width="1" fill="none" fill-rule="evenodd">
        <g id="01.03.01-lopende-projecten---project-details---werkuren" transform="translate(-406.000000, -350.000000)">
            <g id="tabbar-[8h]" transform="translate(72.000000, 330.000000)">
                <g id="tab" transform="translate(315.000000, 1.000000)">
                    <g id="icon/clock" transform="translate(16.000000, 16.000000)">
                        <g id="icons/clock">
                            <rect id="bounding" x="0" y="0" width="24" height="24"></rect>
                            <g id="icon" transform="translate(3.000000, 3.000000)">
                                <mask id="mask-2" fill="white">
                                    <use xlink:href="#path-1"></use>
                                </mask>
                                <use id="Mask" fill="#999999" fill-rule="nonzero" xlink:href="#path-1"></use>
                                <g id="colours/primary/panda-red" mask="url(#mask-2)" fill="#FF3E6F">
                                    <g transform="translate(-3.000000, -3.000000)" id="colours/greys/95">
                                        <rect x="0" y="0" width="24" height="24"></rect>
                                    </g>
                                </g>
                            </g>
                        </g>
                    </g>
                </g>
            </g>
        </g>
    </g>
</svg>