<?xml version="1.0" encoding="UTF-8"?>
<svg width="13px" height="16px" viewBox="0 0 13 16" version="1.1" xmlns="http://www.w3.org/2000/svg" xmlns:xlink="http://www.w3.org/1999/xlink">
    <!-- Generator: sketchtool 53.2 (72643) - https://sketchapp.com -->
    <title>53570D85-6F0B-4A27-B004-BE14991276ED@svg</title>
    <desc>Created with sketchtool.</desc>
    <g id="03.-project-detail" stroke="none" stroke-width="1" fill="none" fill-rule="evenodd">
        <g id="01.03.01-lopende-projecten---project-details---werkuren" transform="translate(-567.000000, -350.000000)">
            <g id="tabbar-[8h]" transform="translate(72.000000, 330.000000)">
                <g id="tab-copy" transform="translate(473.000000, 0.000000)">
                    <g id="icon/euro" transform="translate(16.000000, 16.000000)">
                        <rect id="bounding" x="0" y="0" width="24" height="24"></rect>
                        <path d="M18.0662069,19.0477241 C17.2794483,19.5233103 15.9442759,20 14.4182069,20 C12.2477241,20 10.2935172,19.1437241 9.02896552,17.5481379 C8.26537931,16.6675862 7.74124138,15.4758621 7.52717241,14.0005517 L6,14.0005517 L6,12.6863448 L7.33517241,12.6863448 C7.33517241,12.5671724 7.33517241,12.2868966 7.33517241,12.1677241 C7.33517241,11.881931 7.35834483,11.5729655 7.38262069,11.3103448 L6,11.3103448 L6,9.83393103 L7.5977931,9.83393103 C7.88358621,8.38068966 8.528,7.14262069 9.38648276,6.23889655 C10.6742069,4.80993103 12.4143448,4 14.5373793,4 C15.9685517,4 17.1602759,4.35751724 17.9470345,4.7382069 L17.3511724,6.95282759 C16.7310345,6.61958621 15.7533793,6.30951724 14.6808276,6.30951724 C13.488,6.30951724 12.4397241,6.73765517 11.6518621,7.61931034 C11.1508966,8.14344828 10.7933793,8.92910345 10.6024828,9.83393103 L16.8502069,9.83393103 L16.8502069,11.3103448 L10.3155862,11.3103448 C10.2681379,11.5729655 10.2681379,11.8587586 10.2681379,12.1434483 C10.2681379,12.2868966 10.2681379,12.544 10.2681379,12.6863448 L16.8491034,12.6863448 L16.8491034,14.0005517 L10.5296552,14.0005517 C10.6962759,15.0245517 11.0537931,15.7870345 11.5547586,16.3343448 C12.3657931,17.2148966 13.510069,17.6198621 14.7503448,17.6198621 C15.9188966,17.6198621 17.0157241,17.2148966 17.5641379,16.905931 L18.0662069,19.0477241 Z" id="Shape" fill="#FF3E6F" fill-rule="nonzero"></path>
                    </g>
                </g>
            </g>
        </g>
    </g>
</svg>