<?xml version="1.0" encoding="UTF-8"?>
<svg width="18px" height="19px" viewBox="0 0 18 19" version="1.1" xmlns="http://www.w3.org/2000/svg" xmlns:xlink="http://www.w3.org/1999/xlink">
    <!-- Generator: sketchtool 53.2 (72643) - https://sketchapp.com -->
    <title>9161A54A-69C3-4025-89D0-0D84D42C71F7@svg</title>
    <desc>Created with sketchtool.</desc>
    <defs>
        <path d="M3.13043478,0 C2.69822984,4.37141751e-05 2.3478693,0.354459348 2.34782609,0.791666667 L2.34782609,14.25 L0.782608696,14.25 C0.350403749,14.2500437 4.32140129e-05,14.6044593 0,15.0416667 C0,17.2183668 1.76124827,19 3.91304348,19 L14.0869565,19 C14.1130016,18.9997669 14.1390189,18.9982189 14.1649114,18.9953616 C16.2807871,18.952561 18,17.1917716 18,15.0416667 L18,0.791666667 C17.9999568,0.354459348 17.6495963,4.37141751e-05 17.2173913,0 L3.13043478,0 Z M3.91304348,1.58333333 L16.4347826,1.58333333 L16.4347826,15.0416667 C16.4347826,16.3625498 15.3927266,17.4166667 14.0869565,17.4166667 C12.7811864,17.4166667 11.7391304,16.3625498 11.7391304,15.0416667 C11.7390872,14.6044593 11.3887267,14.2500437 10.9565217,14.25 L3.91304348,14.25 L3.91304348,1.58333333 Z M6.26086957,3.95833333 L6.26086957,5.54166667 L7.82608696,5.54166667 L7.82608696,3.95833333 L6.26086957,3.95833333 Z M9.39130435,3.95833333 L9.39130435,5.54166667 L14.0869565,5.54166667 L14.0869565,3.95833333 L9.39130435,3.95833333 Z M6.26086957,7.125 L6.26086957,8.70833333 L7.82608696,8.70833333 L7.82608696,7.125 L6.26086957,7.125 Z M9.39130435,7.125 L9.39130435,8.70833333 L14.0869565,8.70833333 L14.0869565,7.125 L9.39130435,7.125 Z M6.26086957,10.2916667 L6.26086957,11.875 L7.82608696,11.875 L7.82608696,10.2916667 L6.26086957,10.2916667 Z M9.39130435,10.2916667 L9.39130435,11.875 L14.0869565,11.875 L14.0869565,10.2916667 L9.39130435,10.2916667 Z" id="path-1"></path>
    </defs>
    <g id="03.-project-detail" stroke="none" stroke-width="1" fill="none" fill-rule="evenodd">
        <g id="01.03.01-lopende-projecten---project-details---werkuren" transform="translate(-689.000000, -350.000000)">
            <g id="tabbar-[8h]" transform="translate(72.000000, 330.000000)">
                <g id="tab-copy-2" transform="translate(598.000000, 1.000000)">
                    <g id="Group-4" transform="translate(16.000000, 16.000000)">
                        <g id="icon/expense">
                            <g id="icons/clock">
                                <rect id="bounding" x="0" y="0" width="24" height="24"></rect>
                                <g id="icon" transform="translate(3.000000, 3.000000)">
                                    <mask id="mask-2" fill="white">
                                        <use xlink:href="#path-1"></use>
                                    </mask>
                                    <use id="Mask" fill="#6D819C" fill-rule="nonzero" xlink:href="#path-1"></use>
                                    <g id="colours/primary/panda-red" mask="url(#mask-2)" fill="#FF3E6F">
                                        <g transform="translate(-2.842105, -1.900000)" id="colours/greys/95">
                                            <rect x="0" y="0" width="22.7368412" height="22.7999992"></rect>
                                        </g>
                                    </g>
                                </g>
                            </g>
                        </g>
                    </g>
                </g>
            </g>
        </g>
    </g>
</svg>