<?xml version="1.0" encoding="UTF-8"?>
<svg width="18px" height="18px" viewBox="0 0 18 18" version="1.1" xmlns="http://www.w3.org/2000/svg" xmlns:xlink="http://www.w3.org/1999/xlink">
    <!-- Generator: sketchtool 53.2 (72643) - https://sketchapp.com -->
    <title>F66CAAAE-0555-481C-A3CE-12C0CB7E4FD4@svg</title>
    <desc>Created with sketchtool.</desc>
    <g id="03.-project-detail" stroke="none" stroke-width="1" fill="none" fill-rule="evenodd">
        <g id="01.03.01-lopende-projecten---project-details---werkuren" transform="translate(-91.000000, -349.000000)">
            <g id="tabbar-[8h]" transform="translate(72.000000, 330.000000)">
                <g id="tab-active">
                    <g id="label" transform="translate(16.000000, 16.000000)">
                        <g id="icon/info">
                            <rect id="bounding" x="0" y="0" width="24" height="24"></rect>
                            <path d="M12,3 C7.02976229,3 3,7.02976229 3,12 C3,16.9702385 7.02976229,21 12,21 C16.9702385,21 21,16.9702385 21,12 C21,7.02976229 16.9702385,3 12,3 Z M13.8750004,16.949405 C13.4107147,17.1309524 13.041667,17.2708335 12.7648808,17.3660716 C12.4880952,17.4613097 12.1696427,17.5089288 11.8035718,17.5089288 C11.244048,17.5089288 10.8065478,17.3720236 10.494048,17.0982141 C10.1845242,16.8273813 10.0297623,16.4791665 10.0297623,16.0565478 C10.0297623,15.8928571 10.041667,15.7261905 10.0654766,15.5565478 C10.0863093,15.3839284 10.1250004,15.1934522 10.1755954,14.9761905 L10.7559528,12.9285714 C10.8065478,12.7321432 10.8511909,12.547619 10.8869051,12.3720236 C10.9226194,12.196429 10.9375002,12.0357143 10.9375002,11.8898811 C10.9375002,11.6309524 10.8839284,11.446429 10.7767855,11.3452381 C10.6666667,11.2410712 10.4613097,11.1904762 10.1577379,11.1904762 C10.0089288,11.1904762 9.85416686,11.2142857 9.69642895,11.2589288 C9.53869029,11.3065478 9.4047619,11.3511909 9.29166705,11.3928571 L9.44642895,10.7619048 C9.82440457,10.6071429 10.1875002,10.4761905 10.5357143,10.3660716 C10.8809524,10.2559528 11.2113097,10.199405 11.5178575,10.199405 C12.0744046,10.199405 12.5059528,10.3363093 12.8065478,10.6041669 C13.1071429,10.8720236 13.2589288,11.2232145 13.2589288,11.6517859 C13.2589288,11.7410712 13.25,11.8988099 13.2291665,12.1220236 C13.2083337,12.3452381 13.1696427,12.550595 13.1130956,12.7410712 L12.5357143,14.7827383 C12.4880952,14.946429 12.446429,15.1339284 12.4077379,15.3422621 C12.3720236,15.550595 12.3541669,15.7113097 12.3541669,15.8184526 C12.3541669,16.0892861 12.4136907,16.2767855 12.5357143,16.3750004 C12.6547619,16.4732145 12.8660716,16.5208335 13.1666667,16.5208335 C13.3065478,16.5208335 13.4642857,16.497024 13.6428571,16.449405 C13.8184526,16.3988099 13.946429,16.3571429 14.0267855,16.3184526 L13.8750004,16.949405 Z M13.7708335,8.66071467 C13.502976,8.91071467 13.1785714,9.03571429 12.800595,9.03571429 C12.4226194,9.03571429 12.0952381,8.91071467 11.8244046,8.66071467 C11.5535718,8.41071467 11.4196427,8.10714286 11.4196427,7.752976 C11.4196427,7.3988099 11.5565478,7.0922621 11.8244046,6.8392861 C12.0952381,6.58630933 12.4226194,6.46130971 12.800595,6.46130971 C13.1785714,6.46130971 13.502976,6.58630933 13.7708335,6.8392861 C14.041667,7.0922621 14.1755954,7.3988099 14.1755954,7.752976 C14.1755954,8.10714286 14.041667,8.41071467 13.7708335,8.66071467 Z" id="Shape" fill="#FF3E6F" fill-rule="nonzero"></path>
                        </g>
                    </g>
                </g>
            </g>
        </g>
    </g>
</svg>