<?xml version="1.0" encoding="UTF-8"?>
<svg width="41px" height="32px" viewBox="0 0 41 32" version="1.1" xmlns="http://www.w3.org/2000/svg" xmlns:xlink="http://www.w3.org/1999/xlink">
    <!-- Generator: sketchtool 53.2 (72643) - https://sketchapp.com -->
    <title>6AD7FA8D-04AD-4DB9-B08C-C7C1443AD3AF@svg</title>
    <desc>Created with sketchtool.</desc>
    <defs>
        <path d="M14.314125,9.9331122 C14.314125,7.20686829 12.3745096,5.2478439 9.69610577,5.2478439 C7.01691346,5.2478439 5.04891346,7.22013659 5.04891346,9.9331122 C5.04891346,12.6460878 7.01691346,14.6183805 9.69610577,14.6183805 C12.3745096,14.6183805 14.314125,12.6593561 14.314125,9.9331122 M0.000394230769,9.9331122 C0.000394230769,4.6078439 4.03731731,0.780331707 9.69610577,0.780331707 C15.3399135,0.780331707 19.3626442,4.59301463 19.3626442,9.9331122 C19.3626442,15.2724293 15.3399135,19.0851122 9.69610577,19.0851122 C4.03731731,19.0851122 0.000394230769,15.2576 0.000394230769,9.9331122 Z M35.2383962,9.9331122 C35.2383962,12.6593561 33.2987808,14.6183805 30.6203769,14.6183805 C27.9411846,14.6183805 25.9731846,12.6460878 25.9731846,9.9331122 C25.9731846,7.22013659 27.9411846,5.2478439 30.6203769,5.2478439 C33.2987808,5.2478439 35.2383962,7.20686829 35.2383962,9.9331122 Z M20.9246654,9.9331122 C20.9246654,4.6078439 24.9615885,0.780331707 30.6203769,0.780331707 C36.2641846,0.780331707 40.2869154,4.59301463 40.2869154,9.9331122 C40.2869154,15.2724293 36.2641846,19.0851122 30.6203769,19.0851122 C24.9615885,19.0851122 20.9246654,15.2576 20.9246654,9.9331122 Z M11.3897212,9.93272195 C11.3897212,10.8661854 10.6249135,11.624039 9.681125,11.624039 C8.738125,11.624039 7.97331731,10.8661854 7.97331731,9.93272195 C7.97331731,8.99847805 8.738125,8.24140488 9.681125,8.24140488 C10.6249135,8.24140488 11.3897212,8.99847805 11.3897212,9.93272195 Z M32.3139923,9.93272195 C32.3139923,10.8661854 31.5491846,11.624039 30.6053962,11.624039 C29.6623962,11.624039 28.8975885,10.8661854 28.8975885,9.93272195 C28.8975885,8.99847805 29.6623962,8.24140488 30.6053962,8.24140488 C31.5491846,8.24140488 32.3139923,8.99847805 32.3139923,9.93272195 Z M20.1451923,15.6179512 C21.3657308,17.7697561 23.2935192,19.4321951 25.7014808,20.3867317 L20.0087885,31.564878 L14.5289808,20.4195122 C16.9661154,19.4696585 18.9151923,17.7923902 20.1451923,15.6179512 Z" id="path-1"></path>
    </defs>
    <g id="02.-projects" stroke="none" stroke-width="1" fill="none" fill-rule="evenodd">
        <g id="02.00.00-lopende-projecten" transform="translate(-16.000000, -24.000000)">
            <g id="navigation/main">
                <g id="Group-3">
                    <g id="logo/small" transform="translate(16.000000, 24.000000)">
                        <mask id="mask-2" fill="white">
                            <use xlink:href="#path-1"></use>
                        </mask>
                        <use id="Mask" fill="#FFFFFF" xlink:href="#path-1"></use>
                        <g id="colours/white" mask="url(#mask-2)" fill="#FFFFFF">
                            <rect id="colours/greys/95" x="0" y="0" width="41" height="33"></rect>
                        </g>
                    </g>
                </g>
            </g>
        </g>
    </g>
</svg>