<?xml version="1.0" encoding="UTF-8"?>
<svg width="20px" height="18px" viewBox="0 0 20 18" version="1.1" xmlns="http://www.w3.org/2000/svg" xmlns:xlink="http://www.w3.org/1999/xlink">
    <!-- Generator: sketchtool 53.2 (72643) - https://sketchapp.com -->
    <title>A1D47099-E1BD-4732-97AF-1A37885674ED@svg</title>
    <desc>Created with sketchtool.</desc>
    <g id="03.-project-detail" stroke="none" stroke-width="1" fill="none" fill-rule="evenodd">
        <g id="03.07.01-project-details---planning-filled" transform="translate(-268.000000, -350.000000)">
            <g id="tabbar-[8h]" transform="translate(72.000000, 330.000000)">
                <g id="tab-copy-3" transform="translate(178.000000, 1.000000)">
                    <g id="Group-4" transform="translate(16.000000, 16.000000)">
                        <g id="icon/planning">
                            <rect id="bounding" x="0" y="0" width="24" height="24"></rect>
                            <path d="M3.66666667,3 C2.74583333,3 2,3.73227273 2,4.63636364 L2,7.09090909 L2,20.1818182 C2.00004601,20.6336688 2.3731151,20.9999548 2.83333333,21 L21.1666667,21 C21.6268849,20.9999548 21.999954,20.6336688 22,20.1818182 L22,6.27272727 L22,4.63636364 C22,3.73227273 21.2541667,3 20.3333333,3 L3.66666667,3 Z M3.66666667,7.09090909 L20.3333333,7.09090909 L20.3333333,19.3636364 L3.66666667,19.3636364 L3.66666667,7.09090909 Z M6.16666667,8.72727273 C5.86613674,8.72309976 5.58659886,8.87812524 5.43509357,9.13298688 C5.28358827,9.38784851 5.28358827,9.70306058 5.43509357,9.95792221 C5.58659886,10.2127838 5.86613674,10.3678093 6.16666667,10.3636364 L9.5,10.3636364 C9.80052993,10.3678093 10.0800678,10.2127838 10.2315731,9.95792221 C10.3830784,9.70306058 10.3830784,9.38784851 10.2315731,9.13298688 C10.0800678,8.87812524 9.80052993,8.72309976 9.5,8.72727273 L6.16666667,8.72727273 Z M10.3333333,11.1818182 C10.0328034,11.1776452 9.75326553,11.3326707 9.60176023,11.5875323 C9.45025493,11.842394 9.45025493,12.157606 9.60176023,12.4124677 C9.75326553,12.6673293 10.0328034,12.8223548 10.3333333,12.8181818 L13.6666667,12.8181818 C13.9671966,12.8223548 14.2467345,12.6673293 14.3982398,12.4124677 C14.5497451,12.157606 14.5497451,11.842394 14.3982398,11.5875323 C14.2467345,11.3326707 13.9671966,11.1776452 13.6666667,11.1818182 L10.3333333,11.1818182 Z M14.5,13.6363636 C14.1994701,13.6321907 13.9199322,13.7872162 13.7684269,14.0420778 C13.6169216,14.2969394 13.6169216,14.6121515 13.7684269,14.8670131 C13.9199322,15.1218748 14.1994701,15.2769002 14.5,15.2727273 L17.8333333,15.2727273 C18.1338633,15.2769002 18.4134011,15.1218748 18.5649064,14.8670131 C18.7164117,14.6121515 18.7164117,14.2969394 18.5649064,14.0420778 C18.4134011,13.7872162 18.1338633,13.6321907 17.8333333,13.6363636 L14.5,13.6363636 Z M6.16666667,16.0909091 C5.86613674,16.0867361 5.58659886,16.2417616 5.43509357,16.4966232 C5.28358827,16.7514849 5.28358827,17.0666969 5.43509357,17.3215586 C5.58659886,17.5764202 5.86613674,17.7314457 6.16666667,17.7272727 L9.5,17.7272727 C9.80052993,17.7314457 10.0800678,17.5764202 10.2315731,17.3215586 C10.3830784,17.0666969 10.3830784,16.7514849 10.2315731,16.4966232 C10.0800678,16.2417616 9.80052993,16.0867361 9.5,16.0909091 L6.16666667,16.0909091 Z" id="icon" fill="#FF3E6F" fill-rule="nonzero"></path>
                        </g>
                    </g>
                </g>
            </g>
        </g>
    </g>
</svg>